<svg xmlns="http://www.w3.org/2000/svg" viewBox="0 0 564.01 96.42"><title>logo_white_full</title><g id="Layer_2" data-name="Layer 2"><g id="Layer_6" data-name="Layer 6"><path d="M69.26,49.71c0-12.73,9-22.89,21.66-22.89,7.88,0,14,3.61,14,8.83A4.82,4.82,0,0,1,100,40.59,5.13,5.13,0,0,1,95.1,34.8c0-2.19,1.33-3.14,1.33-3.71-.38-1.14-3.14-2.56-5.8-2.56-7.22,0-12.92,7.12-12.92,17.76,0,10.93,6.37,18.15,14.73,18.15,4.94,0,8.64-1.52,12.06-6.75l1.14.57C101.46,66,96,70.42,88.26,70.42,77.24,70.42,69.26,61.4,69.26,49.71Z" fill="#fff"/><path d="M108.87,49.71c0-12.82,8.84-22.89,21.09-22.89,9.5,0,15.2,5.41,15.2,13.39a12.29,12.29,0,0,1-.28,2.47l-27.27-.19a26.93,26.93,0,0,0-.28,3.9c0,10.92,6.36,18,14.72,18,4.94,0,9-1.52,12.54-6.75l1,.57c-4.28,7.7-10,12.16-17.67,12.16C116.85,70.42,108.87,61.4,108.87,49.71Zm27.65-8.83c.09-6.56-2.28-12.35-7.7-12.35-5.22,0-9.88,5.6-11,12.44Z" fill="#fff"/><path d="M173.09,63.2l-.19-.09c-3.32,3.61-7.22,7-12,7-5.6,0-10.26-4.28-10.26-9.69,0-6.56,5.23-11.31,22.8-15.3l.1-2.37c.19-9.69-3.61-13-9.31-13-3.33,0-7.13,1.81-7.13,2.66,0,.67,2.38,2.57,2.38,5.13a4.34,4.34,0,0,1-4.66,4.18c-2.75,0-4.75-1.8-4.75-4,0-4.94,11.31-10.92,18.91-10.92,9.69,0,13.3,3.51,12.63,16.34l-.85,17.57c-.19,3,1,4.66,2.94,4.66,1.52,0,2.76-1.14,4.18-2.38l.86.86c-2,2.66-5.23,6.36-9.12,6.36S173.47,67.86,173.09,63.2Zm-.19-1.71.57-14.82c-12.25,2.85-14.82,6.84-14.82,11.31,0,4.27,3.14,7.12,6.37,7.12C167.77,65.1,170.05,64.25,172.9,61.49Z" fill="#fff"/><path d="M190.19,67.67l2-.1c2.75-.19,3.8-.47,3.8-1.61V39.83c0-5.89-.67-6.84-4-7.6l-2.19-.47.1-1.05L204,27l-.19,7.6h.28c4.09-3.33,9.5-7.7,15.77-7.7a10.2,10.2,0,0,1,7.51,2.76c2.28,2.28,3.13,5.7,3.13,9.88v26.5c0,.67.19,1.14,4.56,1.52l1.62.1.28,1.42H216.7l.28-1.42,1.9-.1c3.14-.19,3.61-.76,3.61-1.61V42c0-6.75-2.75-9.31-8.45-9.31a15.85,15.85,0,0,0-10.17,3.89V66.15c0,.85.57,1.14,4.37,1.42l2,.1.19,1.42H189.91Z" fill="#fff"/><path d="M258.88,67.29l-.67-15h1.62l3,7.79a16,16,0,0,0,14.63,8.55c8-.1,13-5.7,13-12.83,0-7.69-5.51-10.92-14-13.87-9.31-3.32-16.63-7.6-16.63-17.29,0-7.79,6.46-16.15,19-16.24a45.58,45.58,0,0,1,12.54,1.8L295.36,9l.19,16.53H294L288.9,13.61a18.93,18.93,0,0,0-10.36-3.32c-6.65,0-11.11,4.65-11.11,10.35,0,7.32,6.08,10.26,13.58,13,10.55,3.8,17.67,8.26,17.67,18.43,0,8.83-8.36,18.33-21.75,18.33C271.13,70.52,264.29,69,258.88,67.29Z" fill="#fff"/><path d="M304.19,49.71c0-12.82,8.84-22.89,21.09-22.89,9.5,0,15.2,5.41,15.2,13.39a12.29,12.29,0,0,1-.28,2.47l-27.27-.19a26.94,26.94,0,0,0-.29,3.9c0,10.92,6.37,18,14.73,18,4.94,0,9-1.52,12.54-6.75l1,.57c-4.28,7.7-10,12.16-17.67,12.16C312.17,70.42,304.19,61.4,304.19,49.71Zm27.65-8.83c.09-6.56-2.28-12.35-7.7-12.35-5.22,0-9.88,5.6-11,12.44Z" fill="#fff"/><path d="M345.42,49.71c0-12.73,9-22.89,21.66-22.89,7.89,0,14,3.61,14,8.83a4.83,4.83,0,0,1-4.85,4.94,5.13,5.13,0,0,1-4.94-5.79c0-2.19,1.33-3.14,1.33-3.71-.38-1.14-3.13-2.56-5.79-2.56-7.23,0-12.92,7.12-12.92,17.76,0,10.93,6.36,18.15,14.72,18.15,4.94,0,8.65-1.52,12.07-6.75l1.13.57c-4.17,7.7-9.68,12.16-17.38,12.16C353.4,70.42,345.42,61.4,345.42,49.71Z" fill="#fff"/><path d="M415.62,62.73h-.19c-4,3.61-9.31,7.69-15.48,7.69a10.62,10.62,0,0,1-7.6-2.85c-2.19-2.28-3-5.6-3-9.88l.09-26.5c0-1-.28-1.05-4.65-1.43l-1.62-.19-.28-1.42h14.63l-.29,27.17c0,6.74,2.85,9.21,8.55,9.21a15,15,0,0,0,9.79-3.7V33.47c0-2.85-.76-3.42-4.47-3.71l-2-.19-.29-1.42h14.73V62.44c0,1.81.38,2.28,1.33,2.57L430,66.24l-.1,1.05-14.25,3.32Z" fill="#fff"/><path d="M431.77,67.67l2-.1c2.75-.19,3.8-.47,3.8-1.61V39.83c0-5.89-.67-6.84-4-7.6l-2.19-.47.1-1.05L445.55,27l-.19,14.15h.28C449,32,452.77,26.91,458.37,26.91c3.42,0,6.08,2.38,6.08,5.23a5.09,5.09,0,0,1-5.13,5.32,5.59,5.59,0,0,1-5.51-5.13c-3.32,1-5.89,5.13-8.36,12.73V66.15c0,.85.67,1.23,4.47,1.42l3.23.1.28,1.42H431.49Z" fill="#fff"/><path d="M466.92,67.67l2-.1c2.75-.19,3.8-.47,3.8-1.61V39.74c0-5.8-.67-6.75-4-7.51l-2.19-.47.1-1.05,14-3.7V66.15c0,.85.57,1.14,4.47,1.42l1.71.1.28,1.42H466.64Zm3.52-54.06a5.32,5.32,0,1,1,10.64,0,5.32,5.32,0,1,1-10.64,0Z" fill="#fff"/><path d="M495.52,59.4l.57-26.88-7.6-.19.28-1.62,5.13-4L503,19.41l1.14.28-.09,8.46H518.7l-1.33,4h-13.3l-.67,26.31c-.09,4.47,2.28,6.84,7,6.84a12.73,12.73,0,0,0,8-2.85l.48,1c-3.71,3.8-8.46,7-13.21,7C499.32,70.42,495.42,67.1,495.52,59.4Z" fill="#fff"/><path d="M523,88.57a4.65,4.65,0,0,1,4.75-4.75c3.23,0,4.75,1.9,5.6,4.08,2.1-.57,3.33-3.42,4.94-8l3.42-10.26h-.09L526,35.08c-1.9-4.18-2.28-4.84-5.32-5.13l-1.9-.28-.28-1.43h20.8L539,29.67l-1.8.19c-3.13.19-3.71,1.33-2.38,4.46l10.64,24.61,7.13-19.76c2.66-7.51,2.09-8.74-3.42-9.31l-1.71-.19-.28-1.43H564l-.29,1.43-1.8.19c-3.89.38-4.37,1.61-7.6,10.35L543.77,68.43l-4,12.44c-2.66,8.27-5.52,12.73-10.93,12.73C525.53,93.6,523,91.42,523,88.57Z" fill="#fff"/><g opacity="0.8"><path d="M70.14,14A7.53,7.53,0,0,0,73.9,15c2.15,0,3.4-1.14,3.4-2.78S76.43,9.86,74.24,9C71.59,8.07,70,6.7,70,4.41,70,1.88,72.05,0,75.2,0a7.41,7.41,0,0,1,3.6.8l-.58,1.71a6.47,6.47,0,0,0-3.09-.78c-2.21,0-3.06,1.33-3.06,2.44,0,1.52,1,2.27,3.23,3.13,2.75,1.06,4.15,2.39,4.15,4.78s-1.86,4.67-5.69,4.67a8.39,8.39,0,0,1-4.15-1Z" fill="#b3b3b3"/><path d="M86.85,2.05H81.9V.26h12V2.05H89V16.51H86.85Z" fill="#b3b3b3"/><path d="M106,8.89H99.72v5.86h7v1.76H97.62V.26h8.77V2H99.72V7.16H106Z" fill="#b3b3b3"/><path d="M111.05.46a24.17,24.17,0,0,1,4-.32,6.7,6.7,0,0,1,4.55,1.35,4.37,4.37,0,0,1,1.43,3.4,4.78,4.78,0,0,1-1.26,3.47,6.73,6.73,0,0,1-5,1.79,7.22,7.22,0,0,1-1.69-.15v6.51h-2.1Zm2.1,7.83a7.1,7.1,0,0,0,1.74.17C117.42,8.46,119,7.23,119,5s-1.52-3.18-3.83-3.18a8.57,8.57,0,0,0-2,.17Z" fill="#b3b3b3"/><path d="M126.23.26v6.8h7.85V.26h2.12V16.51h-2.12V8.89h-7.85v7.62h-2.1V.26Z" fill="#b3b3b3"/><path d="M149.53,8.89h-6.31v5.86h7v1.76h-9.13V.26h8.77V2h-6.67V7.16h6.31Z" fill="#b3b3b3"/><path d="M154.56,16.51V.26h2.28l5.21,8.22A45.87,45.87,0,0,1,165,13.76l.05,0c-.2-2.17-.25-4.15-.25-6.68V.26h2V16.51h-2.12l-5.16-8.24a52.48,52.48,0,0,1-3-5.43l-.07,0c.12,2.05.17,4,.17,6.7v6.94Z" fill="#b3b3b3"/><path d="M171.58,14A7.53,7.53,0,0,0,175.34,15c2.15,0,3.4-1.14,3.4-2.78s-.87-2.38-3.06-3.23c-2.65-.94-4.29-2.31-4.29-4.6,0-2.53,2.1-4.41,5.25-4.41a7.41,7.41,0,0,1,3.6.8l-.58,1.71a6.47,6.47,0,0,0-3.09-.78c-2.22,0-3.06,1.33-3.06,2.44,0,1.52,1,2.27,3.23,3.13,2.75,1.06,4.15,2.39,4.15,4.78s-1.86,4.67-5.69,4.67a8.39,8.39,0,0,1-4.15-1Z" fill="#b3b3b3"/><path d="M198.19,8.22c0,5.59-3.4,8.55-7.54,8.55-4.29,0-7.31-3.32-7.31-8.24,0-5.16,3.21-8.53,7.55-8.53S198.19,3.4,198.19,8.22Zm-12.6.26c0,3.47,1.87,6.58,5.18,6.58S196,12,196,8.31c0-3.22-1.68-6.6-5.18-6.6S185.59,4.92,185.59,8.48Z" fill="#b3b3b3"/><path d="M201.26,16.51V.26h2.29l5.21,8.22a47.26,47.26,0,0,1,2.91,5.28l.05,0c-.19-2.17-.24-4.15-.24-6.68V.26h2V16.51h-2.12l-5.16-8.24a52.48,52.48,0,0,1-3-5.43l-.07,0c.12,2.05.17,4,.17,6.7v6.94Z" fill="#b3b3b3"/></g><g opacity="0.8"><path d="M415.82,80.11a23.94,23.94,0,0,1,4-.32,6.74,6.74,0,0,1,4.56,1.35,4.4,4.4,0,0,1,1.42,3.4A4.77,4.77,0,0,1,424.57,88a6.75,6.75,0,0,1-5,1.79,7.28,7.28,0,0,1-1.69-.15v6.51h-2.09Zm2.09,7.83a7.1,7.1,0,0,0,1.74.17c2.53,0,4.07-1.23,4.07-3.47s-1.52-3.18-3.83-3.18a8.63,8.63,0,0,0-2,.17Z" fill="#ccc"/><path d="M429.86,80.13a21.66,21.66,0,0,1,4-.34c2.24,0,3.69.41,4.7,1.33a4,4,0,0,1,1.28,3.08,4.27,4.27,0,0,1-3.06,4.15v.07c1.25.44,2,1.59,2.38,3.28a25.38,25.38,0,0,0,1.26,4.46h-2.17a20.81,20.81,0,0,1-1.09-3.88c-.48-2.24-1.35-3.09-3.25-3.16h-2v7h-2.1Zm2.1,7.4h2.15c2.24,0,3.66-1.23,3.66-3.08,0-2.1-1.52-3-3.74-3a9,9,0,0,0-2.07.19Z" fill="#ccc"/><path d="M458.63,87.87c0,5.59-3.4,8.55-7.55,8.55s-7.3-3.32-7.3-8.24c0-5.16,3.21-8.53,7.54-8.53S458.63,83.05,458.63,87.87ZM446,88.13c0,3.47,1.88,6.58,5.18,6.58s5.21-3.06,5.21-6.75c0-3.22-1.69-6.6-5.18-6.6S446,84.57,446,88.13Z" fill="#ccc"/><path d="M465.9,79.91H468V90.78c0,4.32-2.12,5.64-4.92,5.64a6.71,6.71,0,0,1-2.24-.38l.31-1.71a5,5,0,0,0,1.76.31c1.88,0,3-.84,3-4Z" fill="#ccc"/><path d="M481.75,88.54h-6.32V94.4h7v1.76h-9.14V79.91h8.78v1.76h-6.68v5.14h6.32Z" fill="#ccc"/><path d="M497.77,95.63a10.49,10.49,0,0,1-4.29.77c-4.58,0-8-2.89-8-8.22a8.09,8.09,0,0,1,8.49-8.53,8.67,8.67,0,0,1,3.85.72l-.5,1.71a7.75,7.75,0,0,0-3.28-.67c-3.81,0-6.34,2.43-6.34,6.7,0,4,2.29,6.53,6.24,6.53a8.44,8.44,0,0,0,3.43-.67Z" fill="#ccc"/><path d="M506,81.7h-4.94V79.91h12V81.7h-5V96.16H506Z" fill="#ccc"/></g><path d="M56.59,57.22a.4.4,0,0,1-.08.37l-.19.27c-.13.19-.26.37-.4.54l-.4.54-.43.52c-.56.69-1.17,1.36-1.8,2A29.09,29.09,0,0,1,49.15,65a28.75,28.75,0,0,1-4.76,2.75A29.36,29.36,0,0,1,27.92,70.1a32.41,32.41,0,0,1-15.81-6.84,32.48,32.48,0,0,1-7.77-9,34.8,34.8,0,0,1-2.53-5.47A36.89,36.89,0,0,1,.35,42.93,34.17,34.17,0,0,1,0,36.87a30.21,30.21,0,0,1,.83-6,27.68,27.68,0,0,1,2-5.68c.44-.91.91-1.79,1.43-2.65S5.41,20.87,6,20.08a33.09,33.09,0,0,1,4-4.37c.72-.66,1.46-1.29,2.23-1.88s1.54-1.16,2.34-1.69,1.62-1,2.45-1.48,1.67-.9,2.52-1.3A32.47,32.47,0,0,1,24.8,7.42c.45-.12.9-.23,1.36-.33s.9-.21,1.36-.3q1.38-.25,2.76-.39c.92-.07,1.85-.15,2.77-.16s1.86,0,2.78.08a29.38,29.38,0,0,1,5.48.88A27.48,27.48,0,0,1,44,8.06c.87.34,1.73.7,2.57,1.11A32.28,32.28,0,0,1,51.37,12a29.11,29.11,0,0,1,4.28,3.64c.65.68,1.25,1.4,1.83,2.13S58.6,19.25,59.12,20s1,1.59,1.45,2.41.85,1.68,1.22,2.54.71,1.74,1,2.63.54,1.8.74,2.72a28.43,28.43,0,0,1,.65,5.58c0,.94,0,1.87-.11,2.8a4.68,4.68,0,0,1-.41,1.37,3.88,3.88,0,0,1-1,1.28s-2.6,1.93-3.19,1.27A3.52,3.52,0,0,1,59.34,41a33.49,33.49,0,0,0-.29-9.53,30.43,30.43,0,0,0-3.16-9.35c-.41-.73-.85-1.46-1.32-2.16s-1-1.37-1.52-2a26.4,26.4,0,0,0-3.55-3.62,25.63,25.63,0,0,0-8.79-4.92A28.89,28.89,0,0,0,30.5,8.11a22.15,22.15,0,0,0-10,3.13,20.52,20.52,0,0,0-7.19,7.39,26.32,26.32,0,0,0-2.06,4.62c-.26.78-.49,1.58-.68,2.37s-.37,1.58-.53,2.35c-.28,1.57-.52,3.12-.66,4.66s-.26,3.06-.29,4.57a34.27,34.27,0,0,0,1.1,9c.18.73.4,1.46.65,2.19s.51,1.44.8,2.15.6,1.42,1,2.11.74,1.37,1.14,2A25.67,25.67,0,0,0,20,61.79a24.08,24.08,0,0,0,8.69,4.3,26.43,26.43,0,0,0,9.92.66,28.44,28.44,0,0,0,14-6c.68-.54,1.35-1.11,2-1.72l.47-.46.46-.47c.16-.16.31-.32.46-.49l.22-.24A.44.44,0,0,1,56.59,57.22Z" fill="#fff" opacity="0.6"/><path d="M56.58,57.22a.44.44,0,0,0-.34.16l-.22.24-.45.48-.46.48-.48.45c-.63.61-1.3,1.19-2,1.73a28.59,28.59,0,0,1-4.34,2.87,27.9,27.9,0,0,1-9.7,3.11,26.18,26.18,0,0,1-9.91-.65,24.29,24.29,0,0,1-8.7-4.3,25.84,25.84,0,0,1-6.24-7.09c-.39-.67-.78-1.35-1.13-2s-.67-1.39-1-2.11-.56-1.43-.8-2.15-.46-1.46-.65-2.2c-.13-.5-.28-1.22-.31-1.33a41,41,0,0,1-.56-4.33,32.26,32.26,0,0,1,.37-8.35,29.27,29.27,0,0,1,1-4.23,24.78,24.78,0,0,1,1.76-4.12,19.25,19.25,0,0,1,1.19-1.93c.44-.62.91-1.22,1.41-1.81A20.2,20.2,0,0,1,18.55,17,16.44,16.44,0,0,1,22.7,15a24.11,24.11,0,0,1,4.52-1c.76-.09,1.52-.16,2.29-.18l1.16,0c.39,0,.78,0,1.16,0a24,24,0,0,1,4.56.57,18.18,18.18,0,0,1,4.25,1.55,15.67,15.67,0,0,1,3.64,2.62A17.81,17.81,0,0,1,47.13,22a24,24,0,0,1,2,4.08,26,26,0,0,1,1.21,4.44,32.64,32.64,0,0,0,1,4.53.59.59,0,0,0,.17.25.62.62,0,0,0,.89-.06l.38-.42a4,4,0,0,0,.79-1.36,3.71,3.71,0,0,0,.21-1.29,17.58,17.58,0,0,0-.21-2.51,19,19,0,0,0-1.51-4.82,26.06,26.06,0,0,0-2.52-4.48,22.76,22.76,0,0,0-1.63-2c-.29-.32-.6-.62-.91-.93s-.64-.6-1-.87a18.88,18.88,0,0,0-4.41-2.74,20.33,20.33,0,0,0-4.88-1.43A28.51,28.51,0,0,0,31.88,12c-.41,0-.82,0-1.23,0l-1.22.09c-.82.07-1.63.19-2.44.34a28.06,28.06,0,0,0-4.69,1.38,43.12,43.12,0,0,0-4.43,2,32,32,0,0,0-4.19,2.59c-.69.47-1.35,1-2,1.51s-1.29,1.09-1.9,1.68A30.12,30.12,0,0,0,6.31,25.5,26.43,26.43,0,0,0,3.52,30a23.88,23.88,0,0,0-1.07,2.43c-.31.83-.6,1.67-.83,2.54s-.44,1.72-.61,2.6a26.52,26.52,0,0,0-.35,2.66A22.73,22.73,0,0,0,.9,45.52c0,.07,0,.14,0,.21h0c0,.09.36,1.48.89,3.08a29.16,29.16,0,0,0,2.53,5.47,32.37,32.37,0,0,0,3.48,4.87,33.88,33.88,0,0,0,4.28,4.11A34.4,34.4,0,0,0,17,66.51a31.91,31.91,0,0,0,10.91,3.58,29.43,29.43,0,0,0,11.23-.54,29.11,29.11,0,0,0,5.25-1.82A30.36,30.36,0,0,0,49.15,65a29.62,29.62,0,0,0,4.14-3.52c.63-.64,1.23-1.31,1.8-2l.42-.53.41-.53q.21-.27.39-.54l.2-.27A.44.44,0,0,0,56.58,57.22Z" fill="#fff" opacity="0.7"/><path d="M56.59,57.22a.44.44,0,0,0-.34.16l-.22.24c-.15.17-.3.33-.46.49l-.46.47-.47.46c-.63.61-1.3,1.18-2,1.72a28.44,28.44,0,0,1-14,6,26.43,26.43,0,0,1-9.92-.66A24.08,24.08,0,0,1,20,61.79a25.67,25.67,0,0,1-6.24-7.09c-.4-.67-.79-1.34-1.14-2s-.66-1.39-1-2.11-.57-1.42-.8-2.15-.47-1.46-.65-2.19a35,35,0,0,1-1-6.09c0,.2,0,.4,0,.6,0-.53-.06-1.06-.07-1.6a23.88,23.88,0,0,1,.22-3.25,17.88,17.88,0,0,1,2.15-6.33,16.34,16.34,0,0,1,2-2.78,17.44,17.44,0,0,1,2.54-2.32,20.33,20.33,0,0,1,5.79-3.22,20.13,20.13,0,0,1,6.74-1.09,14.63,14.63,0,0,1,5.82,1.32,20.67,20.67,0,0,1,3,1.47l.73.43c.23.16.47.3.71.46s.47.31.72.45a4.09,4.09,0,0,0,.78.4,1,1,0,0,0,.62,0,1,1,0,0,0,.65-1.18l-.07-.22a4,4,0,0,0-1.08-1.71A18.58,18.58,0,0,0,39,20.28a11,11,0,0,0-3.49-1.86,15.46,15.46,0,0,0-7-1,23.2,23.2,0,0,0-7.37,1.89,26.18,26.18,0,0,0-6.09,3.8,31.58,31.58,0,0,0-5.21,5.19,28.14,28.14,0,0,0-3.79,6.4,26,26,0,0,0-1.94,7.33,23.53,23.53,0,0,0-.12,3.85c0,.64.09,1.28.17,1.93s.19,1.28.33,1.91a25.59,25.59,0,0,0,7.6,13.41c.58.54,1.22,1,1.84,1.5,0,0,2,1.27,3,1.83A32.19,32.19,0,0,0,27.92,70.1a29.36,29.36,0,0,0,16.47-2.37A28.75,28.75,0,0,0,49.15,65a29.09,29.09,0,0,0,4.14-3.51c.63-.65,1.24-1.32,1.8-2l.43-.52.4-.54c.14-.17.27-.35.4-.54l.19-.27A.4.4,0,0,0,56.59,57.22Z" fill="#fff"/></g></g></svg>