<svg xmlns="http://www.w3.org/2000/svg" viewBox="0 0 64.19 64.16"><title>logo_white_icon</title><g id="Layer_2" data-name="Layer 2"><g id="Layer_6" data-name="Layer 6"><path d="M56.59,51a.41.41,0,0,1-.08.37l-.19.27-.4.54-.4.53-.43.53c-.56.69-1.17,1.36-1.8,2a29.16,29.16,0,0,1-4.14,3.52,29.42,29.42,0,0,1-21.23,5.11A32.39,32.39,0,0,1,17,60.28,33.75,33.75,0,0,1,12.11,57a32.48,32.48,0,0,1-7.77-9,35.23,35.23,0,0,1-2.53-5.47A37,37,0,0,1,.35,36.69,34.07,34.07,0,0,1,0,30.63a30.31,30.31,0,0,1,.83-6,27.81,27.81,0,0,1,2-5.67c.44-.91.91-1.79,1.43-2.65S5.41,14.64,6,13.84a33.65,33.65,0,0,1,4-4.36c.72-.66,1.46-1.29,2.23-1.88s1.54-1.16,2.34-1.69,1.62-1,2.45-1.48,1.67-.9,2.52-1.3A32.47,32.47,0,0,1,24.8,1.19c.45-.13.9-.23,1.36-.34s.9-.2,1.36-.29Q28.9.31,30.28.17C31.2.09,32.13,0,33.05,0s1.86,0,2.78.07A29.38,29.38,0,0,1,41.31,1c.9.25,1.79.54,2.66.87s1.73.7,2.57,1.1a32.34,32.34,0,0,1,4.83,2.81,29.11,29.11,0,0,1,4.28,3.64,26.65,26.65,0,0,1,1.83,2.13c.58.74,1.12,1.5,1.64,2.29s1,1.59,1.45,2.41.85,1.67,1.22,2.54.71,1.74,1,2.63a28,28,0,0,1,.74,2.72,28.34,28.34,0,0,1,.65,5.58c0,.94,0,1.87-.11,2.8a4.68,4.68,0,0,1-.41,1.37,4,4,0,0,1-1,1.28s-2.6,1.93-3.19,1.27a3.56,3.56,0,0,1-.18-1.63,33.42,33.42,0,0,0-.29-9.52,30.48,30.48,0,0,0-3.16-9.36c-.41-.73-.85-1.45-1.32-2.15s-1-1.37-1.52-2A25.31,25.31,0,0,0,49.5,8.1a25.63,25.63,0,0,0-8.79-4.92A28.89,28.89,0,0,0,30.5,1.88,22.14,22.14,0,0,0,20.54,5a20.63,20.63,0,0,0-7.19,7.4A26,26,0,0,0,11.29,17c-.26.78-.49,1.57-.68,2.36s-.37,1.58-.53,2.36c-.28,1.57-.52,3.11-.66,4.65S9.16,29.45,9.13,31a34.14,34.14,0,0,0,1.1,9c.18.74.4,1.47.65,2.2s.51,1.44.8,2.15.6,1.42,1,2.11.74,1.36,1.14,2A25.67,25.67,0,0,0,20,55.56a24.25,24.25,0,0,0,8.69,4.3,26.22,26.22,0,0,0,9.92.65,27.78,27.78,0,0,0,9.69-3.11,28.94,28.94,0,0,0,4.35-2.87c.68-.55,1.35-1.12,2-1.73l.47-.46.46-.47c.16-.15.31-.32.46-.48l.22-.24A.41.41,0,0,1,56.59,51Z" fill="#fff" opacity="0.6"/><path d="M56.58,51a.44.44,0,0,0-.34.15l-.22.25-.45.48-.46.47-.48.46c-.63.61-1.3,1.18-2,1.73a30.18,30.18,0,0,1-4.34,2.87,28.11,28.11,0,0,1-9.7,3.11,26.19,26.19,0,0,1-9.91-.66A24.11,24.11,0,0,1,20,55.56a25.73,25.73,0,0,1-6.24-7.1c-.39-.67-.78-1.34-1.13-2s-.67-1.4-1-2.11-.56-1.43-.8-2.16-.46-1.45-.65-2.19c-.13-.5-.28-1.22-.31-1.33a41.32,41.32,0,0,1-.56-4.33A32.24,32.24,0,0,1,9.72,26a29.72,29.72,0,0,1,1-4.24,25,25,0,0,1,1.76-4.11,19.25,19.25,0,0,1,1.19-1.93c.44-.62.91-1.23,1.41-1.81a20.2,20.2,0,0,1,3.44-3.08A16.11,16.11,0,0,1,22.7,8.72a23.34,23.34,0,0,1,4.52-1c.76-.09,1.52-.16,2.29-.18l1.16,0h1.16a24.85,24.85,0,0,1,4.56.58,18.18,18.18,0,0,1,4.25,1.55,15.67,15.67,0,0,1,3.64,2.62,17.53,17.53,0,0,1,2.85,3.5,23.86,23.86,0,0,1,2,4.07,26.38,26.38,0,0,1,1.21,4.45,32.64,32.64,0,0,0,1,4.53.51.51,0,0,0,.17.24A.62.62,0,0,0,52.5,29l.38-.42a3.89,3.89,0,0,0,.79-1.37A3.71,3.71,0,0,0,53.88,26a17.57,17.57,0,0,0-.21-2.5,18.87,18.87,0,0,0-1.51-4.82,25.77,25.77,0,0,0-2.52-4.49,24.13,24.13,0,0,0-1.63-2c-.29-.32-.6-.63-.91-.93s-.64-.6-1-.87a18.88,18.88,0,0,0-4.41-2.74,19.89,19.89,0,0,0-4.88-1.43,27.56,27.56,0,0,0-4.95-.36l-1.23,0-1.22.09c-.82.08-1.63.19-2.44.35A27.15,27.15,0,0,0,22.3,7.64a41.09,41.09,0,0,0-4.43,2,33,33,0,0,0-4.19,2.58c-.69.48-1.35,1-2,1.52s-1.29,1.08-1.9,1.67a30.91,30.91,0,0,0-3.47,3.83,26.43,26.43,0,0,0-2.79,4.45,22.94,22.94,0,0,0-1.07,2.43c-.31.83-.6,1.67-.83,2.53S1.18,30.41,1,31.29A26.52,26.52,0,0,0,.66,34,22.73,22.73,0,0,0,.9,39.29c0,.07,0,.14,0,.2h0c0,.09.36,1.48.89,3.07a29,29,0,0,0,2.53,5.48,32.8,32.8,0,0,0,3.48,4.86A34.68,34.68,0,0,0,12.1,57,33.5,33.5,0,0,0,17,60.27a32.14,32.14,0,0,0,10.91,3.59A29.54,29.54,0,0,0,44.39,61.5a30.36,30.36,0,0,0,4.76-2.75,31,31,0,0,0,4.14-3.52q.95-1,1.8-2l.42-.52.41-.53q.21-.27.39-.54l.2-.28A.41.41,0,0,0,56.58,51Z" fill="#fff" opacity="0.7"/><path d="M56.59,51a.41.41,0,0,0-.34.16l-.22.24c-.15.16-.3.33-.46.48l-.46.47-.47.46c-.63.61-1.3,1.18-2,1.73a28.94,28.94,0,0,1-4.35,2.87,27.78,27.78,0,0,1-9.69,3.11,26.22,26.22,0,0,1-9.92-.65A24.25,24.25,0,0,1,20,55.56a25.67,25.67,0,0,1-6.24-7.09c-.4-.68-.79-1.35-1.14-2s-.66-1.39-1-2.11-.57-1.43-.8-2.15-.47-1.46-.65-2.2a34.87,34.87,0,0,1-1-6.09c0,.21,0,.41,0,.61,0-.53-.06-1.06-.07-1.6a24,24,0,0,1,.22-3.26,17.88,17.88,0,0,1,2.15-6.33,16.74,16.74,0,0,1,2-2.78,17.38,17.38,0,0,1,2.54-2.31A19.47,19.47,0,0,1,28.61,13.9a14.63,14.63,0,0,1,5.82,1.32,19.7,19.7,0,0,1,3,1.47l.73.43.71.46q.35.24.72.45a5.7,5.7,0,0,0,.78.4,1,1,0,0,0,.62,0,1,1,0,0,0,.65-1.18l-.07-.22a3.87,3.87,0,0,0-1.08-1.71A16.78,16.78,0,0,0,39,14.05a11.21,11.21,0,0,0-3.49-1.87,15.59,15.59,0,0,0-7-.94,23.2,23.2,0,0,0-7.37,1.89,26.18,26.18,0,0,0-6.09,3.8,31.2,31.2,0,0,0-5.21,5.19,28.29,28.29,0,0,0-3.79,6.39,26.19,26.19,0,0,0-1.94,7.33,23.53,23.53,0,0,0-.12,3.85c0,.65.09,1.29.17,1.93s.19,1.28.33,1.92a24.86,24.86,0,0,0,2.76,7.28A26.5,26.5,0,0,0,12.17,57c.58.54,1.22,1,1.84,1.49,0,0,2,1.28,3,1.84a32.39,32.39,0,0,0,10.92,3.58,29.32,29.32,0,0,0,21.23-5.11,29.16,29.16,0,0,0,4.14-3.52c.63-.64,1.24-1.31,1.8-2l.43-.53.4-.53.4-.54.19-.27A.41.41,0,0,0,56.59,51Z" fill="#fff"/></g></g></svg>