<svg xmlns="http://www.w3.org/2000/svg" viewBox="0 0 313.89 312.69"><g data-name="Layer 2"><g data-name="Layer 6"><path d="M269.9 256a2 2 0 0 1-.48 1.75l-1 1.27c-.69.85-1.38 1.69-2.11 2.51l-2.18 2.47-2.23 2.41c-3 3.21-6.14 6.26-9.42 9.2a147.31 147.31 0 0 1-45.34 27.68 143.85 143.85 0 0 1-81 6.26 157 157 0 0 1-52-21 160.56 160.56 0 0 1-42.33-38.78A160.13 160.13 0 0 1 16.34 225a169.68 169.68 0 0 1-10.59-27.45 175.64 175.64 0 0 1-5.21-29.11 159.51 159.51 0 0 1 .32-29.64 149 149 0 0 1 5.93-29 139 139 0 0 1 11.75-27c2.43-4.26 5-8.42 7.81-12.43s5.86-7.8 9-11.47a160.55 160.55 0 0 1 20.75-20q5.57-4.49 11.46-8.43c3.9-2.65 7.86-5.18 11.93-7.49s8.22-4.42 12.38-6.44 8.43-3.83 12.72-5.5a157.18 157.18 0 0 1 26.32-7.79c2.23-.46 4.48-.83 6.73-1.19s4.49-.71 6.74-1c4.51-.56 9-.9 13.56-1s9-.14 13.57.09 9 .63 13.48 1.27a143.45 143.45 0 0 1 26.42 6q6.48 2.23 12.7 5.08c4.11 1.93 8.18 4 12.14 6.2a157.72 157.72 0 0 1 22.67 15.21A141.18 141.18 0 0 1 278.59 53c3 3.51 5.66 7.2 8.28 11s5 7.69 7.22 11.68 4.35 8.06 6.28 12.22 3.62 8.42 5.17 12.74 2.91 8.7 4.08 13.14 2.05 8.95 2.73 13.49a135.83 135.83 0 0 1 1.35 27.39 125.65 125.65 0 0 1-1.42 13.59 22.09 22.09 0 0 1-2.41 6.55 19.13 19.13 0 0 1-5.09 5.94s-13.3 8.58-15.92 5.17c-1-1.3-.65-6.49-.39-8a161.78 161.78 0 0 0 1.61-46.48c-1.68-11.63-3.75-29-12.4-46.58-1.76-3.69-3.65-7.34-5.72-10.9s-4.36-7-6.75-10.36a130.61 130.61 0 0 0-16.15-18.77 124.58 124.58 0 0 0-41.26-26.76c-15.43-5.82-32.25-9.59-49.33-9.6A108.14 108.14 0 0 0 109 20.51a100.45 100.45 0 0 0-37.4 33.73 129.63 129.63 0 0 0-11.5 21.83q-2.32 5.61-4.1 11.32c-1.26 3.76-2.27 7.61-3.3 11.31-1.89 7.56-3.52 15-4.72 22.46s-2.24 14.81-2.86 22.2a166.76 166.76 0 0 0 2.46 44.2c.67 3.66 1.52 7.28 2.47 10.89s2 7.19 3.22 10.75 2.49 7.11 4 10.58 3.16 6.88 4.87 10.29a125.52 125.52 0 0 0 28.11 36.53 117.62 117.62 0 0 0 41 23.71 128 128 0 0 0 48.08 6.36 136.08 136.08 0 0 0 48.21-12.08A141 141 0 0 0 249.62 272c3.5-2.45 6.92-5 10.2-7.79l2.46-2.08 2.39-2.16c.81-.71 1.59-1.45 2.36-2.2l1.16-1.12a2.11 2.11 0 0 1 1.71-.65z" fill="#344a61"/><path d="M269.88 256a2.13 2.13 0 0 0-1.71.64l-1.17 1.14c-.77.75-1.55 1.49-2.36 2.2l-2.39 2.16-2.46 2.08c-3.28 2.76-6.7 5.34-10.2 7.78a139.67 139.67 0 0 1-22.08 12.58 136.34 136.34 0 0 1-48.21 12.08 128.09 128.09 0 0 1-48.09-6.37 117.6 117.6 0 0 1-41-23.7 125.35 125.35 0 0 1-28.13-36.54c-1.72-3.4-3.39-6.8-4.87-10.28s-2.81-7-4-10.58-2.3-7.14-3.22-10.76-1.8-7.23-2.47-10.88c-.47-2.49-1-6.06-1.09-6.61a209.83 209.83 0 0 1-1.33-21.24 158.26 158.26 0 0 1 4.46-40.58 153.57 153.57 0 0 1 6.38-20.3 121.19 121.19 0 0 1 9.88-19.47 108.42 108.42 0 0 1 6.44-9Q75.79 66 79.71 62a97.46 97.46 0 0 1 17.71-14 80.27 80.27 0 0 1 20.88-8.73A114.45 114.45 0 0 1 140.62 36c3.75-.19 7.5-.31 11.25-.16 1.87 0 3.77.15 5.66.22s3.76.27 5.64.45a118.79 118.79 0 0 1 22 4.26 88.7 88.7 0 0 1 20.22 8.89 77.87 77.87 0 0 1 16.92 13.93 88.24 88.24 0 0 1 12.73 18 116.19 116.19 0 0 1 8.67 20.53 130.29 130.29 0 0 1 4.52 22c1.18 7.45 1.34 15 3.63 22.38a3.28 3.28 0 0 0 .75 1.26 3.09 3.09 0 0 0 4.37 0l2-1.94a19.45 19.45 0 0 0 4.32-6.39 18 18 0 0 0 1.41-6.22 93.08 93.08 0 0 0-.21-12.27c-.66-8.18-3-16.16-5.82-24a128.3 128.3 0 0 0-10.85-22.66 115.71 115.71 0 0 0-7.27-10.42c-1.34-1.65-2.76-3.25-4.17-4.83s-2.91-3.11-4.5-4.54a90.92 90.92 0 0 0-20.58-14.76A99.08 99.08 0 0 0 188 31.27a138.11 138.11 0 0 0-24-3.33c-2-.1-4-.14-6-.21s-4 0-6 0a116.52 116.52 0 0 0-12 .93 129.27 129.27 0 0 0-23.28 5.22 205.13 205.13 0 0 0-22.22 8.49 161.06 161.06 0 0 0-21.27 11.26Q68 56.77 63 60.39c-3.33 2.39-6.65 4.86-9.82 7.53a151.85 151.85 0 0 0-18.1 17.53 132.28 132.28 0 0 0-15 20.78 117.07 117.07 0 0 0-6 11.51 123.69 123.69 0 0 0-4.87 12.07q-2.13 6.16-3.8 12.5a124.67 124.67 0 0 0-2.53 12.85 111.11 111.11 0 0 0-.57 26.09c0 .33.1.67.14 1H2.4c.08.46 1.27 7.35 3.33 15.28A143.44 143.44 0 0 0 16.32 225a159.41 159.41 0 0 0 15.42 24.83 164.12 164.12 0 0 0 19.53 21.4 162.24 162.24 0 0 0 22.8 17.37 156.83 156.83 0 0 0 52 21 143.42 143.42 0 0 0 105.07-18.12 146.72 146.72 0 0 0 21.29-15.82c3.27-2.94 6.43-6 9.41-9.2l2.26-2.46 2.16-2.47c.72-.81 1.42-1.65 2.1-2.51l1-1.27a2.06 2.06 0 0 0 .52-1.75z" fill="#0663a1" opacity=".7"/><path d="M269.9 256a2.11 2.11 0 0 0-1.71.64l-1.19 1.15c-.77.75-1.55 1.49-2.36 2.2l-2.39 2.16-2.46 2.08c-3.28 2.77-6.7 5.34-10.2 7.79a141 141 0 0 1-22.09 12.57 136.08 136.08 0 0 1-48.21 12.08 127.81 127.81 0 0 1-48.08-6.37 117.45 117.45 0 0 1-41-23.7 125.52 125.52 0 0 1-28.14-36.53c-1.71-3.41-3.39-6.81-4.87-10.29s-2.8-7-4-10.58-2.3-7.13-3.22-10.75-1.8-7.23-2.47-10.89a168.93 168.93 0 0 1-2.94-30v2.95c0-2.59 0-5.19.18-7.81a108.38 108.38 0 0 1 2.1-15.78 87.7 87.7 0 0 1 12.47-30.15 80.48 80.48 0 0 1 10.62-12.89A83.3 83.3 0 0 1 83 83.4c9.38-6.2 18.43-10.87 29.24-13.84a98.31 98.31 0 0 1 33.15-3.14c11.07.82 18 3.61 28 8.27a101.76 101.76 0 0 1 14.29 8.13c1.11.81 2.26 1.56 3.39 2.34s2.22 1.62 3.31 2.46 2.2 1.67 3.38 2.44a23.39 23.39 0 0 0 3.69 2.17 4.63 4.63 0 0 0 6.55-5.18l-.24-1.1a19.27 19.27 0 0 0-4.76-8.66 85.67 85.67 0 0 0-6.8-6.81 53.59 53.59 0 0 0-16.4-10.2c-12-4.86-21-7.18-33.62-6.85a113.55 113.55 0 0 0-36.48 6.89c-11.53 4.11-21 9.66-30.89 16.54a154.26 154.26 0 0 0-27 23.63 138.36 138.36 0 0 0-20.53 29.93 128.79 128.79 0 0 0-11.78 35.09 119.31 119.31 0 0 0-1.83 18.72c0 3.15.05 6.3.24 9.45s.5 6.31 1 9.44A132 132 0 0 0 23 221.7a125.66 125.66 0 0 0 28.66 49.16c2.62 2.82 5.62 5.3 8.48 7.88.05-.07 9.18 6.83 14 9.88a157 157 0 0 0 52 21 143.43 143.43 0 0 0 105.06-18.16 147.37 147.37 0 0 0 21.28-15.82c3.28-2.94 6.44-6 9.42-9.2l2.23-2.41 2.15-2.47c.73-.82 1.42-1.66 2.11-2.51l1-1.27a2 2 0 0 0 .51-1.78z" fill="#2e96c7" opacity=".7"/></g></g></svg>